<svg xmlns="http://www.w3.org/2000/svg" xmlns:xlink="http://www.w3.org/1999/xlink" width="512" height="512" viewBox="0 0 135.467 135.467"><defs><linearGradient id="a"><stop offset="0" style="stop-color:#946263;stop-opacity:1"/><stop offset="1" style="stop-color:#676394;stop-opacity:1"/></linearGradient><linearGradient xlink:href="#a" id="b" x1="415.34" x2="511.129" y1="-247.789" y2="-247.789" gradientTransform="rotate(45 -194.246 -482.072)" gradientUnits="userSpaceOnUse"/></defs><path d="M105 80.767 37.267 148.5 105 216.234l67.734-67.734zm0 4.83 52.355 52.355-7.786 7.983L105 101.367l-47.132 47.132L94.7 185.331l-.044.043 17.978 18.395-7.632 7.632L42.099 148.5zm0 20.604 33.727 33.726-6.155 6.22-27.57-27.57L75.078 148.5l24.054 24.054 11.919 12.195L105 190.8 62.7 148.5zm0 17.208 17.862 17.861-4.868 4.919L105 133.195 89.695 148.5l2.847 2.847-.063.062 17.153 17.55-4.632 4.633-3.355-3.355-5.272-5.394-.061.06L79.909 148.5zm.002 14.619 10.473 10.472-10.473 10.473L94.529 148.5Zm54.77 2.34 8.13 8.132-52.85 52.852-7.795-7.975 44.877-44.877-.149-.148zm-18.627 1.977 6.038 6.037-.3.307.116.112-33.53 33.531-6.119-6.259 16.105-16.104.124.122zm-15.866 1.343 4.813 4.812-18.043 18.043-4.667-4.775z" style="color:#000;fill:url(#b);stroke-width:1;-inkscape-stroke:none" transform="translate(-37.267 -80.767)"/></svg>